PathFileType	4	(X/Y/Z)	c:/Users/goper/Files/vsCode/490R/osim_files/C15/C15_Fast_05.trc
DataRate	CameraRate	NumFrames	NumMarkers	Units                	OrigDataRate	OrigDataStartFrame	OrigNumFrames
250.00	250.00	4	36	mm	250.0	1695	2711
                Frame#	Time	LPSIS			LASIS			LTH1			LTH2			LTH3			LTH4			LLFE			LMFE			LSH1			LSH2			LSH3			LSH4			LLMAL			LMMAL			LCAL			LMTP5			LTOE			LMTP1			RPSIS			RASIS			RTH1			RTH2			RTH3			RTH4			RLFE			RMFE			RSH1			RSH2			RSH3			RSH4			RLMAL			RMMAL			RCAL			RMTP1			RTOE			RMTP5		
		X1	Y1	Z1	X2	Y2	Z2	X3	Y3	Z3	X4	Y4	Z4	X5	Y5	Z5	X6	Y6	Z6	X7	Y7	Z7	X8	Y8	Z8	X9	Y9	Z9	X10	Y10	Z10	X11	Y11	Z11	X12	Y12	Z12	X13	Y13	Z13	X14	Y14	Z14	X15	Y15	Z15	X16	Y16	Z16	X17	Y17	Z17	X18	Y18	Z18	X19	Y19	Z19	X20	Y20	Z20	X21	Y21	Z21	X22	Y22	Z22	X23	Y23	Z23	X24	Y24	Z24	X25	Y25	Z25	X26	Y26	Z26	X27	Y27	Z27	X28	Y28	Z28	X29	Y29	Z29	X30	Y30	Z30	X31	Y31	Z31	X32	Y32	Z32	X33	Y33	Z33	X34	Y34	Z34	X35	Y35	Z35	X36	Y36	Z36

1695	6.77600	-1744.00415	993.11151	307.18671	-1916.72278	978.45300	347.92719	-1952.38623	591.78973	420.03687	-1969.02283	550.23865	401.64420	-1997.12805	616.84540	418.44318	-2014.12781	575.30005	405.72919	-2006.94812	491.04849	379.58383	-2014.33923	479.93140	262.02283	-1977.25146	369.81009	391.30652	-1991.01746	327.93790	394.82587	-2038.02148	384.76346	392.51633	-2043.02051	341.12158	396.50583	-2096.00342	86.90536	341.34305	-2108.79688	118.36295	252.64940	-2045.78687	52.68475	296.70193	-2228.66309	66.09496	352.14166	-2270.33008	115.69201	294.16412	-2239.04126	76.40240	238.54668	-1730.88818	994.95721	187.33539	-1876.08167	969.61456	102.74401	-1755.76514	607.06702	69.45031	-1749.62231	562.57092	79.30657	-1815.65027	596.09467	77.85360	-1801.87756	550.53876	83.91325	-1738.12952	466.41299	105.65811	-1728.13965	456.54446	221.30663	-1615.16382	407.78766	92.93634	-1594.18823	369.68304	91.45641	-1664.37219	369.85236	92.07648	-1636.73291	339.77911	88.92949	-1480.40686	130.63995	160.83719	-1516.03638	142.47983	246.36661	-1410.00696	124.64711	205.18973	-1589.58215	42.24793	249.80881	-1623.56262	56.31079	199.00337	-1564.41284	34.93643	132.18776
1696	6.78000	-1749.87708	993.22638	307.44772	-1922.43884	978.61859	348.00159	-1958.61194	592.67761	419.77597	-1974.17712	550.57245	401.22903	-2003.26343	617.40448	417.56610	-2020.72778	576.29663	405.07016	-2012.11353	491.53418	379.63159	-2017.98718	479.65045	262.26172	-1981.92957	369.97165	391.14230	-1995.68274	328.17035	394.43936	-2042.85486	384.93268	392.59192	-2047.58875	341.16965	396.23367	-2097.86890	86.61819	341.46994	-2111.19775	117.82082	252.76877	-2046.80994	53.78446	296.85959	-2230.21558	62.88380	351.92334	-2272.90894	111.38313	293.98428	-2240.48291	72.96109	238.28116	-1736.47937	994.56293	187.62589	-1881.70215	969.15356	102.91093	-1761.70251	606.20990	69.62778	-1755.76184	561.61145	79.33366	-1821.63708	595.36371	77.69514	-1808.01489	549.75836	83.67447	-1744.62720	465.90491	105.36868	-1734.67712	455.54037	221.18407	-1620.75903	408.37054	92.77292	-1599.18530	370.64658	91.44595	-1670.36694	369.12317	92.73272	-1641.17773	340.15997	88.81031	-1482.56982	132.82809	160.60521	-1518.44824	144.06540	245.89767	-1412.08154	128.15646	204.95216	-1589.99792	42.38385	249.69698	-1623.84399	56.35649	198.87578	-1564.72131	35.09583	132.18237
1697	6.78400	-1755.47534	993.52655	307.63779	-1928.28369	978.98053	348.00717	-1964.52283	593.56885	419.56012	-1979.99854	551.50458	401.47260	-2009.22913	618.26764	416.65372	-2025.10803	576.93976	403.84988	-2017.13745	492.25797	379.83340	-2021.62109	479.49405	262.26355	-1986.82263	370.52066	391.27127	-2000.45972	328.67194	394.46030	-2047.97229	385.35849	392.80679	-2052.51685	341.43863	396.28354	-2099.25781	86.29273	341.69366	-2114.07715	117.43564	253.96584	-2047.37842	55.04437	297.32541	-2231.50220	59.85259	351.91763	-2275.06396	107.34668	293.87924	-2241.88281	69.73441	238.30038	-1742.10815	994.26581	187.88127	-1887.27795	968.63654	103.08389	-1767.80469	605.39917	69.71440	-1761.76721	560.70435	79.25655	-1827.75476	594.54694	77.50802	-1814.34973	548.95154	83.37237	-1751.26721	465.19315	105.26147	-1741.52283	454.39114	220.97597	-1626.53784	409.10275	92.62511	-1604.27515	371.84573	91.38653	-1675.67639	369.25317	92.57520	-1645.91321	340.68781	88.62147	-1484.67456	135.30775	160.06688	-1521.07019	145.79939	245.29817	-1414.43079	131.86559	204.74660	-1590.44373	42.54737	249.57513	-1624.07935	56.38940	198.75937	-1565.05176	35.28740	132.17070
1698	6.78800	-1761.23889	993.82611	307.73196	-1934.14722	979.43304	348.14273	-1970.31982	594.72858	419.39450	-1985.26819	552.22772	401.75854	-2015.06592	619.37683	415.66583	-2030.69421	577.82202	403.24677	-2022.30737	493.16293	380.15607	-2025.47998	479.56357	262.18094	-1992.05151	371.52374	391.73788	-2005.35632	329.59305	395.03836	-2053.25464	385.92352	393.07364	-2057.50342	341.94073	396.54181	-2100.53857	86.07036	341.91949	-2115.88916	116.89748	254.23228	-2048.27563	55.86397	297.13449	-2232.41895	57.06976	352.09412	-2277.01318	103.76073	294.11020	-2243.11230	66.92431	238.45087	-1747.67468	993.95544	188.03304	-1892.89282	968.23279	103.31339	-1774.11145	604.53027	69.80639	-1768.32605	559.94922	79.26480	-1834.10266	593.83740	77.37364	-1820.89258	548.20319	83.06965	-1757.34949	464.79489	104.71880	-1748.66589	453.27777	220.77986	-1631.86182	410.47415	93.65370	-1609.63770	373.05963	91.37690	-1679.84131	370.00293	91.44061	-1650.82385	341.22015	88.45071	-1487.07568	137.70110	159.91841	-1524.03308	147.64418	244.68965	-1417.17090	135.74940	204.51843	-1591.02454	42.73114	249.45702	-1624.38306	56.45877	198.66380	-1565.41638	35.52724	132.16661
